<mxfile host="app.diagrams.net" modified="2020-08-02T22:25:26.572Z" agent="5.0 (Macintosh; Intel Mac OS X 10_14_4) AppleWebKit/537.36 (KHTML, like Gecko) Chrome/84.0.4147.105 Safari/537.36" etag="JJba0G5oa6l0ZSuf4KBI" version="13.4.6" type="github">
  <diagram id="YDJ1yZX5YXDAvU9ZMjzg" name="Page-1">
    <mxGraphModel dx="946" dy="597" grid="1" gridSize="10" guides="1" tooltips="1" connect="1" arrows="1" fold="1" page="1" pageScale="1" pageWidth="1000" pageHeight="500" math="0" shadow="0">
      <root>
        <mxCell id="0" />
        <mxCell id="1" parent="0" />
        <mxCell id="3-XOls-ArDlVTc4dclsM-4" style="edgeStyle=orthogonalEdgeStyle;rounded=0;orthogonalLoop=1;jettySize=auto;html=1;entryX=0.5;entryY=1;entryDx=0;entryDy=0;" edge="1" parent="1" source="3-XOls-ArDlVTc4dclsM-1" target="3-XOls-ArDlVTc4dclsM-2">
          <mxGeometry relative="1" as="geometry" />
        </mxCell>
        <mxCell id="3-XOls-ArDlVTc4dclsM-1" value="&lt;font style=&quot;font-size: 18px&quot;&gt;Input Layer&lt;/font&gt;" style="rounded=0;whiteSpace=wrap;html=1;fillColor=#ffe6cc;strokeColor=#d79b00;" vertex="1" parent="1">
          <mxGeometry x="41" y="370" width="120" height="60" as="geometry" />
        </mxCell>
        <mxCell id="3-XOls-ArDlVTc4dclsM-5" style="edgeStyle=orthogonalEdgeStyle;rounded=0;orthogonalLoop=1;jettySize=auto;html=1;entryX=0.5;entryY=1;entryDx=0;entryDy=0;" edge="1" parent="1" source="3-XOls-ArDlVTc4dclsM-2" target="3-XOls-ArDlVTc4dclsM-3">
          <mxGeometry relative="1" as="geometry" />
        </mxCell>
        <mxCell id="3-XOls-ArDlVTc4dclsM-2" value="&lt;span style=&quot;font-size: 18px&quot;&gt;Hidden Layer&lt;/span&gt;" style="rounded=0;whiteSpace=wrap;html=1;fillColor=#f5f5f5;strokeColor=#666666;fontColor=#333333;" vertex="1" parent="1">
          <mxGeometry x="41" y="210" width="120" height="60" as="geometry" />
        </mxCell>
        <mxCell id="3-XOls-ArDlVTc4dclsM-3" value="&lt;span style=&quot;font-size: 18px&quot;&gt;Output Layer&lt;/span&gt;" style="rounded=0;whiteSpace=wrap;html=1;fillColor=#dae8fc;strokeColor=#6c8ebf;" vertex="1" parent="1">
          <mxGeometry x="41" y="50" width="120" height="60" as="geometry" />
        </mxCell>
        <mxCell id="3-XOls-ArDlVTc4dclsM-9" value="&lt;font style=&quot;font-size: 18px&quot;&gt;Delayer&lt;/font&gt;" style="rounded=0;whiteSpace=wrap;html=1;" vertex="1" parent="1">
          <mxGeometry x="201" y="210" width="120" height="60" as="geometry" />
        </mxCell>
        <mxCell id="3-XOls-ArDlVTc4dclsM-11" value="" style="endArrow=classic;html=1;exitX=0.75;exitY=0;exitDx=0;exitDy=0;edgeStyle=orthogonalEdgeStyle;curved=1;entryX=0.5;entryY=0;entryDx=0;entryDy=0;" edge="1" parent="1" source="3-XOls-ArDlVTc4dclsM-2" target="3-XOls-ArDlVTc4dclsM-9">
          <mxGeometry width="50" height="50" relative="1" as="geometry">
            <mxPoint x="391" y="210" as="sourcePoint" />
            <mxPoint x="441" y="160" as="targetPoint" />
            <Array as="points">
              <mxPoint x="131" y="150" />
              <mxPoint x="261" y="150" />
            </Array>
          </mxGeometry>
        </mxCell>
        <mxCell id="3-XOls-ArDlVTc4dclsM-13" value="" style="endArrow=classic;html=1;exitX=0.75;exitY=1;exitDx=0;exitDy=0;edgeStyle=orthogonalEdgeStyle;curved=1;entryX=0.5;entryY=1;entryDx=0;entryDy=0;" edge="1" parent="1" source="3-XOls-ArDlVTc4dclsM-2" target="3-XOls-ArDlVTc4dclsM-9">
          <mxGeometry width="50" height="50" relative="1" as="geometry">
            <mxPoint x="391" y="210" as="sourcePoint" />
            <mxPoint x="441" y="160" as="targetPoint" />
            <Array as="points">
              <mxPoint x="131" y="330" />
              <mxPoint x="261" y="330" />
            </Array>
          </mxGeometry>
        </mxCell>
        <mxCell id="3-XOls-ArDlVTc4dclsM-14" value="&lt;br&gt;		&lt;br&gt;&lt;br&gt;&lt;div class=&quot;page&quot; title=&quot;Page 146&quot;&gt;&lt;div class=&quot;layoutArea&quot;&gt;&lt;div class=&quot;column&quot; style=&quot;font-size: 16px&quot;&gt;					&lt;p&gt;&lt;span style=&quot;vertical-align: 1pt&quot;&gt;&lt;b&gt;í µí²‰&lt;/b&gt;&lt;/span&gt;&lt;span style=&quot;vertical-align: -1pt&quot;&gt;&lt;b&gt;í µí±¡&lt;/b&gt;&amp;nbsp;&lt;/span&gt;&lt;/p&gt;&lt;br&gt;				&lt;/div&gt;&lt;br&gt;			&lt;/div&gt;&lt;br&gt;		&lt;/div&gt;" style="text;html=1;strokeColor=none;fillColor=none;align=center;verticalAlign=middle;whiteSpace=wrap;rounded=0;" vertex="1" parent="1">
          <mxGeometry x="171" y="130" width="40" height="20" as="geometry" />
        </mxCell>
        <mxCell id="3-XOls-ArDlVTc4dclsM-16" value="&lt;font style=&quot;font-size: 15px&quot;&gt;&lt;br&gt;		&lt;br&gt;&lt;br&gt;&lt;/font&gt;&lt;div class=&quot;page&quot; title=&quot;Page 146&quot;&gt;&lt;div class=&quot;layoutArea&quot;&gt;&lt;div class=&quot;column&quot;&gt;					&lt;p&gt;&lt;font&gt;&lt;span style=&quot;font-weight: bold ; vertical-align: 1pt&quot;&gt;&lt;font style=&quot;font-size: 16px&quot;&gt;í µí²‰&lt;/font&gt;&lt;/span&gt;&lt;sub&gt;&lt;b style=&quot;font-size: 15px&quot;&gt;í µí±¡âˆ’&lt;/b&gt;&lt;font style=&quot;font-size: 13px&quot;&gt;1&lt;/font&gt;&lt;/sub&gt;&lt;/font&gt;&lt;/p&gt;&lt;font style=&quot;font-size: 15px&quot;&gt;&lt;br&gt;				&lt;/font&gt;&lt;/div&gt;&lt;font style=&quot;font-size: 15px&quot;&gt;&lt;br&gt;			&lt;/font&gt;&lt;/div&gt;&lt;br&gt;		&lt;/div&gt;" style="text;html=1;strokeColor=none;fillColor=none;align=center;verticalAlign=middle;whiteSpace=wrap;rounded=0;" vertex="1" parent="1">
          <mxGeometry x="171" y="340" width="40" height="20" as="geometry" />
        </mxCell>
        <mxCell id="3-XOls-ArDlVTc4dclsM-17" value="&lt;br&gt;&lt;br&gt;&lt;div class=&quot;page&quot; title=&quot;Page 146&quot;&gt;&lt;div class=&quot;layoutArea&quot;&gt;&lt;div class=&quot;column&quot;&gt;	&lt;br&gt;		&lt;p&gt;&lt;span style=&quot;font-size: 21px ; vertical-align: 1pt&quot;&gt;í µí±¦&lt;/span&gt;&lt;sub&gt;&lt;font style=&quot;font-size: 16px&quot;&gt;í µí±¡&lt;/font&gt;&lt;span style=&quot;font-size: 16px&quot;&gt;âˆ’&lt;/span&gt;&lt;font style=&quot;font-size: 13px&quot;&gt;1&lt;/font&gt;&lt;/sub&gt;&lt;span style=&quot;font-size: 21px ; vertical-align: -1pt&quot;&gt;&amp;nbsp;&lt;/span&gt;&lt;/p&gt;&lt;br&gt;				&lt;/div&gt;&lt;br&gt;			&lt;/div&gt;&lt;br&gt;		&lt;/div&gt;" style="rounded=0;whiteSpace=wrap;html=1;fillColor=#dae8fc;strokeColor=#6c8ebf;" vertex="1" parent="1">
          <mxGeometry x="480" y="50" width="120" height="60" as="geometry" />
        </mxCell>
        <mxCell id="3-XOls-ArDlVTc4dclsM-18" value="" style="shape=flexArrow;endArrow=classic;html=1;" edge="1" parent="1">
          <mxGeometry width="50" height="50" relative="1" as="geometry">
            <mxPoint x="341" y="239.5" as="sourcePoint" />
            <mxPoint x="421" y="239.5" as="targetPoint" />
          </mxGeometry>
        </mxCell>
        <mxCell id="3-XOls-ArDlVTc4dclsM-19" value="&lt;br&gt;&lt;br&gt;&lt;div class=&quot;page&quot; title=&quot;Page 146&quot;&gt;&lt;div class=&quot;layoutArea&quot;&gt;&lt;div class=&quot;column&quot;&gt;	&lt;br&gt;		&lt;p&gt;&lt;span style=&quot;font-size: 21px ; vertical-align: 1pt&quot;&gt;í µí±¦&lt;/span&gt;&lt;sub&gt;&lt;font style=&quot;font-size: 16px&quot;&gt;í µí±¡&lt;/font&gt;&lt;/sub&gt;&lt;span style=&quot;font-size: 21px ; vertical-align: -1pt&quot;&gt;&amp;nbsp;&lt;/span&gt;&lt;/p&gt;&lt;br&gt;				&lt;/div&gt;&lt;br&gt;			&lt;/div&gt;&lt;br&gt;		&lt;/div&gt;" style="rounded=0;whiteSpace=wrap;html=1;fillColor=#dae8fc;strokeColor=#6c8ebf;" vertex="1" parent="1">
          <mxGeometry x="660" y="50" width="120" height="60" as="geometry" />
        </mxCell>
        <mxCell id="3-XOls-ArDlVTc4dclsM-20" value="&lt;br&gt;&lt;br&gt;&lt;div class=&quot;page&quot; title=&quot;Page 146&quot;&gt;&lt;div class=&quot;layoutArea&quot;&gt;&lt;div class=&quot;column&quot;&gt;	&lt;br&gt;		&lt;p&gt;&lt;span style=&quot;font-size: 21px ; vertical-align: 1pt&quot;&gt;í µí±¦&lt;/span&gt;&lt;sub&gt;&lt;font style=&quot;font-size: 16px&quot;&gt;í µí±¡&lt;/font&gt;&lt;span style=&quot;font-size: 16px&quot;&gt;+&lt;/span&gt;&lt;font style=&quot;font-size: 13px&quot;&gt;1&lt;/font&gt;&lt;/sub&gt;&lt;span style=&quot;font-size: 21px ; vertical-align: -1pt&quot;&gt;&amp;nbsp;&lt;/span&gt;&lt;/p&gt;&lt;br&gt;				&lt;/div&gt;&lt;br&gt;			&lt;/div&gt;&lt;br&gt;		&lt;/div&gt;" style="rounded=0;whiteSpace=wrap;html=1;fillColor=#dae8fc;strokeColor=#6c8ebf;" vertex="1" parent="1">
          <mxGeometry x="840" y="50" width="120" height="60" as="geometry" />
        </mxCell>
        <mxCell id="3-XOls-ArDlVTc4dclsM-30" style="edgeStyle=orthogonalEdgeStyle;curved=1;rounded=0;orthogonalLoop=1;jettySize=auto;html=1;entryX=0.5;entryY=1;entryDx=0;entryDy=0;" edge="1" parent="1" source="3-XOls-ArDlVTc4dclsM-21" target="3-XOls-ArDlVTc4dclsM-17">
          <mxGeometry relative="1" as="geometry" />
        </mxCell>
        <mxCell id="3-XOls-ArDlVTc4dclsM-31" style="edgeStyle=orthogonalEdgeStyle;curved=1;rounded=0;orthogonalLoop=1;jettySize=auto;html=1;entryX=0;entryY=0.5;entryDx=0;entryDy=0;" edge="1" parent="1" source="3-XOls-ArDlVTc4dclsM-21" target="3-XOls-ArDlVTc4dclsM-23">
          <mxGeometry relative="1" as="geometry" />
        </mxCell>
        <mxCell id="3-XOls-ArDlVTc4dclsM-21" value="&lt;font style=&quot;font-size: 21px&quot;&gt;&lt;br&gt;&lt;/font&gt;&lt;div class=&quot;page&quot; title=&quot;Page 147&quot;&gt;&lt;div class=&quot;layoutArea&quot;&gt;&lt;div class=&quot;column&quot;&gt;		&lt;font style=&quot;font-size: 21px&quot;&gt;&lt;br&gt;		&lt;br&gt;&lt;/font&gt;&lt;p&gt;&lt;span style=&quot;vertical-align: -1pt&quot;&gt;&lt;font&gt;&lt;span style=&quot;font-size: 18px&quot;&gt;í µí²‰&lt;/span&gt;&lt;span style=&quot;vertical-align: -2pt&quot;&gt;&lt;span style=&quot;font-size: 16px&quot;&gt;í µí±¡âˆ’&lt;/span&gt;&lt;font style=&quot;font-size: 13px&quot;&gt;1&lt;/font&gt;&lt;span style=&quot;font-size: 18px&quot;&gt;&amp;nbsp;&lt;/span&gt;&lt;/span&gt;&lt;span style=&quot;font-size: 18px&quot;&gt;&amp;nbsp;&lt;/span&gt;&lt;/font&gt;&lt;/span&gt;&lt;/p&gt;&lt;font style=&quot;font-size: 18px&quot;&gt;&lt;br&gt;				&lt;/font&gt;&lt;/div&gt;&lt;font style=&quot;font-size: 21px&quot;&gt;&lt;br&gt;			&lt;/font&gt;&lt;/div&gt;&lt;br&gt;		&lt;/div&gt;" style="rounded=0;whiteSpace=wrap;html=1;fillColor=#f5f5f5;strokeColor=#666666;fontColor=#333333;" vertex="1" parent="1">
          <mxGeometry x="480" y="200" width="120" height="60" as="geometry" />
        </mxCell>
        <mxCell id="3-XOls-ArDlVTc4dclsM-33" style="edgeStyle=orthogonalEdgeStyle;curved=1;rounded=0;orthogonalLoop=1;jettySize=auto;html=1;entryX=0.5;entryY=1;entryDx=0;entryDy=0;" edge="1" parent="1" source="3-XOls-ArDlVTc4dclsM-23" target="3-XOls-ArDlVTc4dclsM-19">
          <mxGeometry relative="1" as="geometry" />
        </mxCell>
        <mxCell id="3-XOls-ArDlVTc4dclsM-36" style="edgeStyle=orthogonalEdgeStyle;curved=1;rounded=0;orthogonalLoop=1;jettySize=auto;html=1;entryX=0;entryY=0.5;entryDx=0;entryDy=0;" edge="1" parent="1" source="3-XOls-ArDlVTc4dclsM-23" target="3-XOls-ArDlVTc4dclsM-24">
          <mxGeometry relative="1" as="geometry" />
        </mxCell>
        <mxCell id="3-XOls-ArDlVTc4dclsM-23" value="&lt;font style=&quot;font-size: 21px&quot;&gt;&lt;br&gt;&lt;/font&gt;&lt;div class=&quot;page&quot; title=&quot;Page 147&quot; style=&quot;font-size: 21px&quot;&gt;&lt;div class=&quot;layoutArea&quot; style=&quot;font-size: 18px&quot;&gt;&lt;div class=&quot;column&quot;&gt;		&lt;font style=&quot;font-size: 21px&quot;&gt;&lt;br&gt;		&lt;br&gt;&lt;/font&gt;&lt;p&gt;&lt;span style=&quot;vertical-align: -1pt&quot;&gt;&lt;font style=&quot;font-size: 18px&quot;&gt;&lt;span&gt;í µí²‰&lt;/span&gt;&lt;span style=&quot;vertical-align: -2pt&quot;&gt;í µí±¡&amp;nbsp;&lt;/span&gt;&amp;nbsp;&lt;/font&gt;&lt;/span&gt;&lt;/p&gt;&lt;font style=&quot;font-size: 18px&quot;&gt;&lt;br&gt;				&lt;/font&gt;&lt;/div&gt;&lt;font style=&quot;font-size: 21px&quot;&gt;&lt;br&gt;			&lt;/font&gt;&lt;/div&gt;&lt;br&gt;		&lt;/div&gt;" style="rounded=0;whiteSpace=wrap;html=1;fillColor=#f5f5f5;strokeColor=#666666;fontColor=#333333;" vertex="1" parent="1">
          <mxGeometry x="660" y="200" width="120" height="60" as="geometry" />
        </mxCell>
        <mxCell id="3-XOls-ArDlVTc4dclsM-34" style="edgeStyle=orthogonalEdgeStyle;curved=1;rounded=0;orthogonalLoop=1;jettySize=auto;html=1;exitX=0.5;exitY=0;exitDx=0;exitDy=0;entryX=0.5;entryY=1;entryDx=0;entryDy=0;" edge="1" parent="1" source="3-XOls-ArDlVTc4dclsM-24" target="3-XOls-ArDlVTc4dclsM-20">
          <mxGeometry relative="1" as="geometry" />
        </mxCell>
        <mxCell id="3-XOls-ArDlVTc4dclsM-24" value="&lt;font style=&quot;font-size: 21px&quot;&gt;&lt;br&gt;&lt;/font&gt;&lt;div class=&quot;page&quot; title=&quot;Page 147&quot;&gt;&lt;div class=&quot;layoutArea&quot;&gt;&lt;div class=&quot;column&quot;&gt;		&lt;font style=&quot;font-size: 21px&quot;&gt;&lt;br&gt;		&lt;br&gt;&lt;/font&gt;&lt;p&gt;&lt;span style=&quot;vertical-align: -1pt&quot;&gt;&lt;font style=&quot;font-size: 13px&quot;&gt;&lt;span style=&quot;font-size: 18px&quot;&gt;í µí²‰&lt;/span&gt;&lt;span style=&quot;vertical-align: -2pt&quot;&gt;&lt;font style=&quot;font-size: 16px&quot;&gt;í µí±¡&lt;/font&gt;&lt;span&gt;+&lt;/span&gt;&lt;font style=&quot;font-size: 13px&quot;&gt;1&lt;/font&gt;&lt;span&gt;&amp;nbsp;&lt;/span&gt;&lt;/span&gt;&lt;span style=&quot;font-size: 18px&quot;&gt;&amp;nbsp;&lt;/span&gt;&lt;/font&gt;&lt;/span&gt;&lt;/p&gt;&lt;font style=&quot;font-size: 18px&quot;&gt;&lt;br&gt;				&lt;/font&gt;&lt;/div&gt;&lt;font style=&quot;font-size: 21px&quot;&gt;&lt;br&gt;			&lt;/font&gt;&lt;/div&gt;&lt;br&gt;		&lt;/div&gt;" style="rounded=0;whiteSpace=wrap;html=1;fillColor=#f5f5f5;strokeColor=#666666;fontColor=#333333;" vertex="1" parent="1">
          <mxGeometry x="840" y="200" width="120" height="60" as="geometry" />
        </mxCell>
        <mxCell id="3-XOls-ArDlVTc4dclsM-29" style="edgeStyle=orthogonalEdgeStyle;curved=1;rounded=0;orthogonalLoop=1;jettySize=auto;html=1;exitX=0.5;exitY=0;exitDx=0;exitDy=0;entryX=0.5;entryY=1;entryDx=0;entryDy=0;" edge="1" parent="1" source="3-XOls-ArDlVTc4dclsM-26" target="3-XOls-ArDlVTc4dclsM-21">
          <mxGeometry relative="1" as="geometry" />
        </mxCell>
        <mxCell id="3-XOls-ArDlVTc4dclsM-26" value="&lt;font style=&quot;font-size: 20px&quot;&gt;&lt;br&gt;&lt;/font&gt;&lt;div class=&quot;page&quot; title=&quot;Page 147&quot;&gt;&lt;div class=&quot;layoutArea&quot;&gt;&lt;div class=&quot;column&quot;&gt;		&lt;font style=&quot;font-size: 20px&quot;&gt;&lt;font style=&quot;font-size: 20px&quot;&gt;&lt;br&gt;		&lt;br&gt;&lt;/font&gt;&lt;/font&gt;&lt;p&gt;&lt;font&gt;&lt;span style=&quot;font-size: 16px ; vertical-align: -2pt&quot;&gt;&lt;font style=&quot;font-size: 21px&quot;&gt;í µí²™&lt;/font&gt;&lt;/span&gt;&lt;sub&gt;&lt;font style=&quot;font-size: 16px&quot;&gt;í µí±¡&lt;/font&gt;&lt;span style=&quot;font-size: 16px&quot;&gt;âˆ’&lt;/span&gt;&lt;font style=&quot;font-size: 13px&quot;&gt;1&lt;/font&gt;&lt;span style=&quot;font-size: 16px&quot;&gt;&amp;nbsp;&lt;/span&gt;&lt;/sub&gt;&lt;span style=&quot;font-size: 18px ; vertical-align: -1pt&quot;&gt;&amp;nbsp;&lt;/span&gt;&lt;/font&gt;&lt;/p&gt;&lt;font style=&quot;font-size: 18px&quot;&gt;&lt;br&gt;				&lt;/font&gt;&lt;/div&gt;&lt;font style=&quot;font-size: 21px&quot;&gt;&lt;br&gt;			&lt;/font&gt;&lt;/div&gt;&lt;br&gt;		&lt;/div&gt;" style="rounded=0;whiteSpace=wrap;html=1;fillColor=#ffe6cc;strokeColor=#d79b00;" vertex="1" parent="1">
          <mxGeometry x="480" y="360" width="120" height="60" as="geometry" />
        </mxCell>
        <mxCell id="3-XOls-ArDlVTc4dclsM-32" style="edgeStyle=orthogonalEdgeStyle;curved=1;rounded=0;orthogonalLoop=1;jettySize=auto;html=1;exitX=0.5;exitY=0;exitDx=0;exitDy=0;entryX=0.5;entryY=1;entryDx=0;entryDy=0;" edge="1" parent="1" source="3-XOls-ArDlVTc4dclsM-27" target="3-XOls-ArDlVTc4dclsM-23">
          <mxGeometry relative="1" as="geometry" />
        </mxCell>
        <mxCell id="3-XOls-ArDlVTc4dclsM-27" value="&lt;font style=&quot;font-size: 20px&quot;&gt;&lt;br&gt;&lt;/font&gt;&lt;div class=&quot;page&quot; title=&quot;Page 147&quot;&gt;&lt;div class=&quot;layoutArea&quot;&gt;&lt;div class=&quot;column&quot;&gt;		&lt;font style=&quot;font-size: 20px&quot;&gt;&lt;font style=&quot;font-size: 20px&quot;&gt;&lt;br&gt;		&lt;br&gt;&lt;/font&gt;&lt;/font&gt;&lt;p&gt;&lt;font&gt;&lt;span style=&quot;font-size: 20px ; vertical-align: -2pt&quot;&gt;&lt;font style=&quot;font-size: 20px&quot;&gt;í µí²™&lt;/font&gt;&lt;/span&gt;&lt;sub&gt;&lt;font style=&quot;font-size: 16px&quot;&gt;í µí±¡&lt;/font&gt;&lt;span style=&quot;font-size: 18px&quot;&gt;&amp;nbsp;&lt;/span&gt;&lt;/sub&gt;&lt;span style=&quot;font-size: 18px ; vertical-align: -1pt&quot;&gt;&amp;nbsp;&lt;/span&gt;&lt;/font&gt;&lt;/p&gt;&lt;font style=&quot;font-size: 18px&quot;&gt;&lt;br&gt;				&lt;/font&gt;&lt;/div&gt;&lt;font style=&quot;font-size: 21px&quot;&gt;&lt;br&gt;			&lt;/font&gt;&lt;/div&gt;&lt;br&gt;		&lt;/div&gt;" style="rounded=0;whiteSpace=wrap;html=1;fillColor=#ffe6cc;strokeColor=#d79b00;" vertex="1" parent="1">
          <mxGeometry x="660" y="360" width="120" height="60" as="geometry" />
        </mxCell>
        <mxCell id="3-XOls-ArDlVTc4dclsM-35" style="edgeStyle=orthogonalEdgeStyle;curved=1;rounded=0;orthogonalLoop=1;jettySize=auto;html=1;" edge="1" parent="1" source="3-XOls-ArDlVTc4dclsM-28" target="3-XOls-ArDlVTc4dclsM-24">
          <mxGeometry relative="1" as="geometry" />
        </mxCell>
        <mxCell id="3-XOls-ArDlVTc4dclsM-28" value="&lt;font style=&quot;font-size: 20px&quot;&gt;&lt;br&gt;&lt;/font&gt;&lt;div class=&quot;page&quot; title=&quot;Page 147&quot;&gt;&lt;div class=&quot;layoutArea&quot;&gt;&lt;div class=&quot;column&quot;&gt;		&lt;font style=&quot;font-size: 20px&quot;&gt;&lt;font style=&quot;font-size: 20px&quot;&gt;&lt;br&gt;		&lt;br&gt;&lt;/font&gt;&lt;/font&gt;&lt;p&gt;&lt;font style=&quot;font-size: 13px&quot;&gt;&lt;span style=&quot;font-size: 20px ; vertical-align: -2pt&quot;&gt;&lt;font style=&quot;font-size: 20px&quot;&gt;í µí²™&lt;/font&gt;&lt;/span&gt;&lt;sub&gt;&lt;font style=&quot;font-size: 16px&quot;&gt;í µí±¡&lt;/font&gt;&lt;span style=&quot;font-size: 16px&quot;&gt;+&lt;/span&gt;&lt;font style=&quot;font-size: 13px&quot;&gt;1&lt;/font&gt;&lt;span style=&quot;font-size: 13px&quot;&gt;&amp;nbsp;&lt;/span&gt;&lt;/sub&gt;&lt;span style=&quot;font-size: 18px ; vertical-align: -1pt&quot;&gt;&amp;nbsp;&lt;/span&gt;&lt;/font&gt;&lt;/p&gt;&lt;font style=&quot;font-size: 18px&quot;&gt;&lt;br&gt;				&lt;/font&gt;&lt;/div&gt;&lt;font style=&quot;font-size: 21px&quot;&gt;&lt;br&gt;			&lt;/font&gt;&lt;/div&gt;&lt;br&gt;		&lt;/div&gt;" style="rounded=0;whiteSpace=wrap;html=1;fillColor=#ffe6cc;strokeColor=#d79b00;" vertex="1" parent="1">
          <mxGeometry x="840" y="360" width="120" height="60" as="geometry" />
        </mxCell>
        <mxCell id="3-XOls-ArDlVTc4dclsM-37" value="&lt;font style=&quot;font-size: 15px&quot;&gt;&lt;br&gt;		&lt;br&gt;	&lt;br&gt;í µí±¼&amp;nbsp;&lt;br&gt;&lt;/font&gt;&lt;div class=&quot;page&quot; title=&quot;Page 146&quot; style=&quot;font-size: 15px&quot;&gt;&lt;div class=&quot;layoutArea&quot;&gt;&lt;div class=&quot;column&quot;&gt;&lt;font style=&quot;font-size: 15px&quot;&gt;&lt;br&gt;				&lt;/font&gt;&lt;/div&gt;&lt;font style=&quot;font-size: 15px&quot;&gt;&lt;br&gt;			&lt;/font&gt;&lt;/div&gt;&lt;br&gt;		&lt;/div&gt;" style="text;html=1;strokeColor=none;fillColor=none;align=center;verticalAlign=middle;whiteSpace=wrap;rounded=0;" vertex="1" parent="1">
          <mxGeometry x="610" y="200" width="40" height="20" as="geometry" />
        </mxCell>
        <mxCell id="3-XOls-ArDlVTc4dclsM-38" value="&lt;font style=&quot;font-size: 15px&quot;&gt;&lt;br&gt;		&lt;br&gt;	&lt;br&gt;í µí±¼&amp;nbsp;&lt;br&gt;&lt;/font&gt;&lt;div class=&quot;page&quot; title=&quot;Page 146&quot; style=&quot;font-size: 15px&quot;&gt;&lt;div class=&quot;layoutArea&quot;&gt;&lt;div class=&quot;column&quot;&gt;&lt;font style=&quot;font-size: 15px&quot;&gt;&lt;br&gt;				&lt;/font&gt;&lt;/div&gt;&lt;font style=&quot;font-size: 15px&quot;&gt;&lt;br&gt;			&lt;/font&gt;&lt;/div&gt;&lt;br&gt;		&lt;/div&gt;" style="text;html=1;strokeColor=none;fillColor=none;align=center;verticalAlign=middle;whiteSpace=wrap;rounded=0;" vertex="1" parent="1">
          <mxGeometry x="790" y="200" width="40" height="20" as="geometry" />
        </mxCell>
        <mxCell id="3-XOls-ArDlVTc4dclsM-40" value="&lt;font style=&quot;font-size: 15px&quot;&gt;&lt;br&gt;		&lt;br&gt;	&lt;br&gt;í µí±¾&amp;nbsp;&lt;br&gt;&lt;/font&gt;&lt;div class=&quot;page&quot; title=&quot;Page 146&quot; style=&quot;font-size: 15px&quot;&gt;&lt;div class=&quot;layoutArea&quot;&gt;&lt;div class=&quot;column&quot;&gt;&lt;font style=&quot;font-size: 15px&quot;&gt;&lt;br&gt;				&lt;/font&gt;&lt;/div&gt;&lt;font style=&quot;font-size: 15px&quot;&gt;&lt;br&gt;			&lt;/font&gt;&lt;/div&gt;&lt;br&gt;		&lt;/div&gt;" style="text;html=1;strokeColor=none;fillColor=none;align=center;verticalAlign=middle;whiteSpace=wrap;rounded=0;" vertex="1" parent="1">
          <mxGeometry x="490" y="300" width="40" height="20" as="geometry" />
        </mxCell>
        <mxCell id="3-XOls-ArDlVTc4dclsM-41" value="&lt;font style=&quot;font-size: 15px&quot;&gt;&lt;br&gt;		&lt;br&gt;	&lt;br&gt;í µí±¾&amp;nbsp;&lt;br&gt;&lt;/font&gt;&lt;div class=&quot;page&quot; title=&quot;Page 146&quot; style=&quot;font-size: 15px&quot;&gt;&lt;div class=&quot;layoutArea&quot;&gt;&lt;div class=&quot;column&quot;&gt;&lt;font style=&quot;font-size: 15px&quot;&gt;&lt;br&gt;				&lt;/font&gt;&lt;/div&gt;&lt;font style=&quot;font-size: 15px&quot;&gt;&lt;br&gt;			&lt;/font&gt;&lt;/div&gt;&lt;br&gt;		&lt;/div&gt;" style="text;html=1;strokeColor=none;fillColor=none;align=center;verticalAlign=middle;whiteSpace=wrap;rounded=0;" vertex="1" parent="1">
          <mxGeometry x="670" y="300" width="40" height="20" as="geometry" />
        </mxCell>
        <mxCell id="3-XOls-ArDlVTc4dclsM-42" value="&lt;font style=&quot;font-size: 15px&quot;&gt;&lt;br&gt;		&lt;br&gt;	&lt;br&gt;í µí±¾&amp;nbsp;&lt;br&gt;&lt;/font&gt;&lt;div class=&quot;page&quot; title=&quot;Page 146&quot; style=&quot;font-size: 15px&quot;&gt;&lt;div class=&quot;layoutArea&quot;&gt;&lt;div class=&quot;column&quot;&gt;&lt;font style=&quot;font-size: 15px&quot;&gt;&lt;br&gt;				&lt;/font&gt;&lt;/div&gt;&lt;font style=&quot;font-size: 15px&quot;&gt;&lt;br&gt;			&lt;/font&gt;&lt;/div&gt;&lt;br&gt;		&lt;/div&gt;" style="text;html=1;strokeColor=none;fillColor=none;align=center;verticalAlign=middle;whiteSpace=wrap;rounded=0;" vertex="1" parent="1">
          <mxGeometry x="860" y="300" width="40" height="20" as="geometry" />
        </mxCell>
        <mxCell id="3-XOls-ArDlVTc4dclsM-44" value="&lt;font style=&quot;font-size: 15px&quot;&gt;&lt;br&gt;		&lt;br&gt;	&lt;br&gt;í µí±½&amp;nbsp;&lt;br&gt;&lt;/font&gt;&lt;div class=&quot;page&quot; title=&quot;Page 147&quot; style=&quot;font-size: 15px&quot;&gt;&lt;div class=&quot;layoutArea&quot;&gt;&lt;div class=&quot;column&quot;&gt;&lt;font style=&quot;font-size: 15px&quot;&gt;&lt;br&gt;				&lt;/font&gt;&lt;/div&gt;&lt;font style=&quot;font-size: 15px&quot;&gt;&lt;br&gt;			&lt;/font&gt;&lt;/div&gt;&lt;br&gt;		&lt;/div&gt;" style="text;html=1;strokeColor=none;fillColor=none;align=center;verticalAlign=middle;whiteSpace=wrap;rounded=0;" vertex="1" parent="1">
          <mxGeometry x="490" y="150" width="40" height="20" as="geometry" />
        </mxCell>
        <mxCell id="3-XOls-ArDlVTc4dclsM-45" value="&lt;font style=&quot;font-size: 15px&quot;&gt;&lt;br&gt;		&lt;br&gt;	&lt;br&gt;í µí±½&amp;nbsp;&lt;br&gt;&lt;/font&gt;&lt;div class=&quot;page&quot; title=&quot;Page 147&quot; style=&quot;font-size: 15px&quot;&gt;&lt;div class=&quot;layoutArea&quot;&gt;&lt;div class=&quot;column&quot;&gt;&lt;font style=&quot;font-size: 15px&quot;&gt;&lt;br&gt;				&lt;/font&gt;&lt;/div&gt;&lt;font style=&quot;font-size: 15px&quot;&gt;&lt;br&gt;			&lt;/font&gt;&lt;/div&gt;&lt;br&gt;		&lt;/div&gt;" style="text;html=1;strokeColor=none;fillColor=none;align=center;verticalAlign=middle;whiteSpace=wrap;rounded=0;" vertex="1" parent="1">
          <mxGeometry x="670" y="150" width="40" height="20" as="geometry" />
        </mxCell>
        <mxCell id="3-XOls-ArDlVTc4dclsM-46" value="&lt;font style=&quot;font-size: 15px&quot;&gt;&lt;br&gt;		&lt;br&gt;	&lt;br&gt;í µí±½&amp;nbsp;&lt;br&gt;&lt;/font&gt;&lt;div class=&quot;page&quot; title=&quot;Page 147&quot; style=&quot;font-size: 15px&quot;&gt;&lt;div class=&quot;layoutArea&quot;&gt;&lt;div class=&quot;column&quot;&gt;&lt;font style=&quot;font-size: 15px&quot;&gt;&lt;br&gt;				&lt;/font&gt;&lt;/div&gt;&lt;font style=&quot;font-size: 15px&quot;&gt;&lt;br&gt;			&lt;/font&gt;&lt;/div&gt;&lt;br&gt;		&lt;/div&gt;" style="text;html=1;strokeColor=none;fillColor=none;align=center;verticalAlign=middle;whiteSpace=wrap;rounded=0;" vertex="1" parent="1">
          <mxGeometry x="860" y="150" width="40" height="20" as="geometry" />
        </mxCell>
        <mxCell id="3-XOls-ArDlVTc4dclsM-47" value="&lt;font style=&quot;font-size: 15px&quot;&gt;&lt;br&gt;		&lt;br&gt;	&lt;br&gt;í µí±¾&amp;nbsp;&lt;br&gt;&lt;/font&gt;&lt;div class=&quot;page&quot; title=&quot;Page 146&quot; style=&quot;font-size: 15px&quot;&gt;&lt;div class=&quot;layoutArea&quot;&gt;&lt;div class=&quot;column&quot;&gt;&lt;font style=&quot;font-size: 15px&quot;&gt;&lt;br&gt;				&lt;/font&gt;&lt;/div&gt;&lt;font style=&quot;font-size: 15px&quot;&gt;&lt;br&gt;			&lt;/font&gt;&lt;/div&gt;&lt;br&gt;		&lt;/div&gt;" style="text;html=1;strokeColor=none;fillColor=none;align=center;verticalAlign=middle;whiteSpace=wrap;rounded=0;" vertex="1" parent="1">
          <mxGeometry x="60" y="310" width="40" height="20" as="geometry" />
        </mxCell>
        <mxCell id="3-XOls-ArDlVTc4dclsM-48" value="&lt;font style=&quot;font-size: 15px&quot;&gt;&lt;br&gt;		&lt;br&gt;	&lt;br&gt;í µí±½&amp;nbsp;&lt;br&gt;&lt;/font&gt;&lt;div class=&quot;page&quot; title=&quot;Page 147&quot; style=&quot;font-size: 15px&quot;&gt;&lt;div class=&quot;layoutArea&quot;&gt;&lt;div class=&quot;column&quot;&gt;&lt;font style=&quot;font-size: 15px&quot;&gt;&lt;br&gt;				&lt;/font&gt;&lt;/div&gt;&lt;font style=&quot;font-size: 15px&quot;&gt;&lt;br&gt;			&lt;/font&gt;&lt;/div&gt;&lt;br&gt;		&lt;/div&gt;" style="text;html=1;strokeColor=none;fillColor=none;align=center;verticalAlign=middle;whiteSpace=wrap;rounded=0;" vertex="1" parent="1">
          <mxGeometry x="60" y="150" width="40" height="20" as="geometry" />
        </mxCell>
      </root>
    </mxGraphModel>
  </diagram>
</mxfile>
